<svg xmlns="http://www.w3.org/2000/svg" viewBox="0 0 430 180" width="430" height="180" role="img" aria-labelledby="t d">
  <title id="t">aiana</title>
  <desc id="d">Conversation memory for Claude Code: records sessions, embeds them as vectors, injects relevant context.</desc>
  <style>
    .sans{font-family:"Segoe UI",-apple-system,BlinkMacSystemFont,Helvetica,Arial,sans-serif}
    .mono{font-family:ui-monospace,SFMono-Regular,"SF Mono",Menlo,Consolas,"Liberation Mono",monospace}
    
    @media (prefers-reduced-motion:reduce){*{animation:none!important}.pkt{display:none}}
  </style>
  <rect x="1" y="1" width="428" height="178" rx="14" fill="#0d1117" stroke="#30363d"/>
  <clipPath id="clip"><rect x="1" y="1" width="428" height="178" rx="14"/></clipPath>
  <rect x="0" y="0" width="6" height="180" fill="#db61a2" clip-path="url(#clip)"/>
  <text x="26" y="44" class="sans" font-size="20" font-weight="700" fill="#e6edf3">aiana</text>
  <text x="26" y="82" class="sans" font-size="13.5" fill="#8b949e">Conversation memory for Claude Code:</text>
  <text x="26" y="102" class="sans" font-size="13.5" fill="#8b949e">records sessions, embeds them as</text>
  <text x="26" y="122" class="sans" font-size="13.5" fill="#8b949e">vectors, injects relevant context.</text>
  <circle cx="31" cy="156" r="5" fill="#3572A5"/>
  <text x="42" y="160" font-size="12.5"><tspan class="sans" fill="#c9d1d9">Python</tspan><tspan class="mono" dx="12" font-size="11.5" fill="#db61a2">MCP · Claude Code</tspan></text>
  
  <g transform="translate(300 24)">
    <path id="mp" d="M14 30L54 14L98 40L70 78L102 114L44 120L20 82L54 14M70 78L20 82" fill="none" stroke="#30363d" stroke-width="2"/>
    <g fill="#161b22" stroke="#db61a2" stroke-width="2">
      <circle cx="14" cy="30" r="6"/><circle cx="54" cy="14" r="6"/><circle cx="98" cy="40" r="6"/>
      <circle cx="70" cy="78" r="8"/><circle cx="102" cy="114" r="6"/><circle cx="44" cy="120" r="6"/><circle cx="20" cy="82" r="6"/>
    </g>
    <circle class="pkt" r="4" fill="#db61a2"><animateMotion dur="6s" repeatCount="indefinite"><mpath href="#mp"/></animateMotion></circle>
  </g>
</svg>
